# xmcd
#
# Track frame offsets:
#	150
#	10630
#	28935
#	44190
#	61102
#	72202
#	84982
#	106197
#	126892
#	137805
#	152962
#	170410
#	187810
#	208042
#	221375
#
# Disc length: 3170 seconds
# Revision: 9
# Processed by: cddbd v1.5.2PL0 Copyright (c) Steve Scherf et al.
# Submitted via: dBpowerAMP V12.0
#
DISCID=cd0c600f
DTITLE=Johnny Cash - Unearthed, Vol. 5, Best Of Cash On American
DYEAR=2003
DGENRE=Country
TTITLE0=Delia's Gone
TTITLE1=Bird on a Wire
TTITLE2=Thirteen
TTITLE3=Rowboat
TTITLE4=The One Rose
TTITLE5=Rusty Cage
TTITLE6=Southern Accents
TTITLE7=Mercy Seat
TTITLE8=Solitary Man
TTITLE9=Wayfaring Stranger
TTITLE10=One
TTITLE11=I Hung My Head
TTITLE12=The Man Comes Around
TTITLE13=We'll Meet Again
TTITLE14=Hurt
EXTD=
EXTT0=
EXTT1=
EXTT2=
EXTT3=
EXTT4=
EXTT5=
EXTT6=
EXTT7=
EXTT8=
EXTT9=
EXTT10=
EXTT11=
EXTT12=
EXTT13=
EXTT14=
PLAYORDER=
